<svg xmlns="http://www.w3.org/2000/svg" width="39" height="52" viewBox="0 0 39 52">
  <metadata><?xpacket begin="﻿" id="W5M0MpCehiHzreSzNTczkc9d"?>
<x:xmpmeta xmlns:x="adobe:ns:meta/" x:xmptk="Adobe XMP Core 5.6-c142 79.160924, 2017/07/13-01:06:39        ">
   <rdf:RDF xmlns:rdf="http://www.w3.org/1999/02/22-rdf-syntax-ns#">
      <rdf:Description rdf:about=""/>
   </rdf:RDF>
</x:xmpmeta>
                                                                                                    
                                                                                                    
                                                                                                    
                                                                                                    
                                                                                                    
                                                                                                    
                                                                                                    
                                                                                                    
                                                                                                    
                                                                                                    
                                                                                                    
                                                                                                    
                                                                                                    
                                                                                                    
                                                                                                    
                                                                                                    
                                                                                                    
                                                                                                    
                                                                                                    
                                                                                                    
                           
<?xpacket end="w"?></metadata>
<defs>
    <style>
      .cls-1 {
        fill: #204b99;
        fill-rule: evenodd;
      }
    </style>
  </defs>
  <path class="cls-1" d="M712,1514.52a1.2,1.2,0,0,0-.354-0.84l-9.322-9.32h0a1.216,1.216,0,0,0-.86-0.36h-25.9a2.566,2.566,0,0,0-2.564,2.56v46.88a2.566,2.566,0,0,0,2.564,2.56h33.872a2.566,2.566,0,0,0,2.564-2.56v-38.9A0.138,0.138,0,0,0,712,1514.52Zm-9.319-6.36,5.164,5.16h-5.036a0.131,0.131,0,0,1-.128-0.13v-5.03h0Zm6.886,45.28a0.122,0.122,0,0,1-.128.12H675.564a0.122,0.122,0,0,1-.128-0.12v-46.88a0.13,0.13,0,0,1,.128-0.13h24.678v6.76a2.566,2.566,0,0,0,2.564,2.56h6.758v37.69h0Zm-6.287-32.78H681.723a1.215,1.215,0,1,0,0,2.43h21.554A1.215,1.215,0,1,0,703.277,1520.66Zm0,7.34H681.723a1.22,1.22,0,0,0,0,2.44h21.554A1.22,1.22,0,0,0,703.277,1528Zm0,7.35H681.723a1.22,1.22,0,0,0,0,2.44h21.554A1.22,1.22,0,0,0,703.277,1535.35ZM692.5,1542.7H681.723a1.215,1.215,0,1,0,0,2.43H692.5A1.215,1.215,0,1,0,692.5,1542.7Z" transform="translate(-673 -1504)"/>
</svg>
