<svg xmlns="http://www.w3.org/2000/svg" width="64.03" height="64" viewBox="0 0 64.03 64">
  <metadata><?xpacket begin="﻿" id="W5M0MpCehiHzreSzNTczkc9d"?>
<x:xmpmeta xmlns:x="adobe:ns:meta/" x:xmptk="Adobe XMP Core 5.6-c142 79.160924, 2017/07/13-01:06:39        ">
   <rdf:RDF xmlns:rdf="http://www.w3.org/1999/02/22-rdf-syntax-ns#">
      <rdf:Description rdf:about=""/>
   </rdf:RDF>
</x:xmpmeta>
                                                                                                    
                                                                                                    
                                                                                                    
                                                                                                    
                                                                                                    
                                                                                                    
                                                                                                    
                                                                                                    
                                                                                                    
                                                                                                    
                                                                                                    
                                                                                                    
                                                                                                    
                                                                                                    
                                                                                                    
                                                                                                    
                                                                                                    
                                                                                                    
                                                                                                    
                                                                                                    
                           
<?xpacket end="w"?></metadata>
<defs>
    <style>
      .cls-1 {
        fill: #204b99;
        fill-rule: evenodd;
      }
    </style>
  </defs>
  <path class="cls-1" d="M1069.2,3434.79a23.222,23.222,0,0,0-33.97,31.63l-2.77,2.77-2.82-2.82a1.654,1.654,0,0,0-2.33,0l-13.21,13.2a7.283,7.283,0,0,0,10.3,10.3l13.21-13.2a1.654,1.654,0,0,0,0-2.33l-2.82-2.82,2.77-2.77A23.222,23.222,0,0,0,1069.2,3434.79Zm-47.13,52.75a3.988,3.988,0,1,1-5.64-5.64l7.37-7.36,5.64,5.63Zm9.7-9.7-5.64-5.63,2.35-2.35,5.64,5.64Zm35.1-12.54a19.92,19.92,0,1,1,0-28.18A19.96,19.96,0,0,1,1066.87,3465.3Zm-2.71-25.47a16.091,16.091,0,1,0,4.71,11.38A16.024,16.024,0,0,0,1064.16,3439.83Zm-2.34,20.42a12.783,12.783,0,1,1,3.75-9.04A12.667,12.667,0,0,1,1061.82,3460.25Z" transform="translate(-1011.97 -3428)"/>
</svg>
