<svg xmlns="http://www.w3.org/2000/svg" width="41" height="55" viewBox="0 0 41 55">
  <metadata><?xpacket begin="﻿" id="W5M0MpCehiHzreSzNTczkc9d"?>
<x:xmpmeta xmlns:x="adobe:ns:meta/" x:xmptk="Adobe XMP Core 5.6-c142 79.160924, 2017/07/13-01:06:39        ">
   <rdf:RDF xmlns:rdf="http://www.w3.org/1999/02/22-rdf-syntax-ns#">
      <rdf:Description rdf:about=""/>
   </rdf:RDF>
</x:xmpmeta>
                                                                                                    
                                                                                                    
                                                                                                    
                                                                                                    
                                                                                                    
                                                                                                    
                                                                                                    
                                                                                                    
                                                                                                    
                                                                                                    
                                                                                                    
                                                                                                    
                                                                                                    
                                                                                                    
                                                                                                    
                                                                                                    
                                                                                                    
                                                                                                    
                                                                                                    
                                                                                                    
                           
<?xpacket end="w"?></metadata>
<defs>
    <style>
      .cls-1 {
        fill: #204b99;
        fill-rule: evenodd;
      }
    </style>
  </defs>
  <path class="cls-1" d="M381.869,1556.06l-7.205-15.34a1.388,1.388,0,0,0-.692-0.67l-3.585-1.6,6.211-10.48c0.015-.02.029-0.05,0.043-0.07a17.2,17.2,0,0,0-3.2-19.97,16.889,16.889,0,0,0-23.994.14A17.062,17.062,0,0,0,344.5,1520a17.291,17.291,0,0,0,1.86,7.9c0.013,0.02.027,0.05,0.042,0.07l6.211,10.48-3.605,1.61a1.359,1.359,0,0,0-.671.66l-7.205,15.34a1.353,1.353,0,0,0,1.768,1.82l9.026-4.04,9.027,4.04a1.314,1.314,0,0,0,1.1,0l9.026-4.04,9.027,4.04a1.329,1.329,0,0,0,1.512-.29A1.368,1.368,0,0,0,381.869,1556.06Zm-33.128-29.44a14.267,14.267,0,0,1-1.545-6.6,14.428,14.428,0,0,1,14.1-14.31,14.165,14.165,0,0,1,10.247,4.15,14.471,14.471,0,0,1,2.715,16.76l-11.6,19.57a1.346,1.346,0,0,1-2.316,0Zm22.882,24.49a1.314,1.314,0,0,0-1.1,0l-9.026,4.04-9.027-4.04a1.314,1.314,0,0,0-1.1,0l-6.253,2.8,5.438-11.57L354,1540.8l4.021,6.78a4.039,4.039,0,0,0,6.949,0L369,1540.8l3.444,1.54,5.437,11.57Zm-10.123-37.2a6.2,6.2,0,1,0,6.155,6.2A6.184,6.184,0,0,0,361.5,1513.91Zm0,9.68a3.48,3.48,0,1,1,3.458-3.48A3.473,3.473,0,0,1,361.5,1523.59Z" transform="translate(-341 -1503)"/>
</svg>
