<svg xmlns="http://www.w3.org/2000/svg" width="58" height="78" viewBox="0 0 58 78">
  <metadata><?xpacket begin="﻿" id="W5M0MpCehiHzreSzNTczkc9d"?>
<x:xmpmeta xmlns:x="adobe:ns:meta/" x:xmptk="Adobe XMP Core 5.6-c142 79.160924, 2017/07/13-01:06:39        ">
   <rdf:RDF xmlns:rdf="http://www.w3.org/1999/02/22-rdf-syntax-ns#">
      <rdf:Description rdf:about=""/>
   </rdf:RDF>
</x:xmpmeta>
                                                                                                    
                                                                                                    
                                                                                                    
                                                                                                    
                                                                                                    
                                                                                                    
                                                                                                    
                                                                                                    
                                                                                                    
                                                                                                    
                                                                                                    
                                                                                                    
                                                                                                    
                                                                                                    
                                                                                                    
                                                                                                    
                                                                                                    
                                                                                                    
                                                                                                    
                                                                                                    
                           
<?xpacket end="w"?></metadata>
<defs>
    <style>
      .cls-1 {
        fill: #204b99;
        fill-rule: evenodd;
      }
    </style>
  </defs>
  <path class="cls-1" d="M1066.93,3773.23l-19.59-64.16a1.5,1.5,0,0,0-1.89-1l-35.37,10.82a1.522,1.522,0,0,0-1.01,1.89l19.59,64.16a1.51,1.51,0,0,0,1.89.99l35.37-10.82A1.515,1.515,0,0,0,1066.93,3773.23Zm-22.05-61.84,2.24,7.32a9.31,9.31,0,0,1-9.59-5.07Zm-32.47,9.94,7.35-2.25a9.328,9.328,0,0,1-5.12,9.57Zm18.71,61.28-2.23-7.32a9.31,9.31,0,0,1,9.59,5.07Zm10.28-3.15a12.347,12.347,0,0,0-13.4-7.08l-12.47-40.82a12.365,12.365,0,0,0,7.16-13.37l11.91-3.65a12.347,12.347,0,0,0,13.4,7.08l12.47,40.83a12.352,12.352,0,0,0-7.16,13.37l-11.91,3.64h0Zm14.84-4.54a9.342,9.342,0,0,1,5.12-9.57l2.23,7.32Zm-6.35-11.34a3.027,3.027,0,0,1,2.01-3.77,1.357,1.357,0,0,0,.91-1.69l-8.74-28.63a1.36,1.36,0,0,0-1.7-.89,3.028,3.028,0,0,1-3.78-2,1.362,1.362,0,0,0-1.7-.9l-9.87,3.02a1.358,1.358,0,0,0-.9,1.7,3.033,3.033,0,0,1-2.02,3.77,1.364,1.364,0,0,0-.91,1.7l8.74,28.62a1.352,1.352,0,0,0,1.7.89,3.036,3.036,0,0,1,3.78,2,1.358,1.358,0,0,0,1.7.9l9.87-3.02A1.364,1.364,0,0,0,1049.89,3763.58Zm-10.43,1.77a5.739,5.739,0,0,0-5.27-2.78l-8.04-26.34a5.759,5.759,0,0,0,2.81-5.26l7.58-2.32a5.749,5.749,0,0,0,5.27,2.78l8.05,26.34a5.758,5.758,0,0,0-2.82,5.26Zm3.03-25.09-0.59-1.95a1.365,1.365,0,0,0-2.61.8l0.2,0.65-8.07,2.47a1.354,1.354,0,1,0,.79,2.59l9.37-2.87A1.357,1.357,0,0,0,1042.49,3740.26Zm3.57,11.69-1.82-5.96a1.358,1.358,0,0,0-1.7-.9l-9.37,2.87a1.357,1.357,0,0,0-.91,1.69l1.82,5.97a1.358,1.358,0,0,0,1.7.9l9.37-2.87A1.364,1.364,0,0,0,1046.06,3751.95Zm-9.76,1.57-1.03-3.37,6.76-2.07,1.03,3.37Z" transform="translate(-1009 -3708)"/>
</svg>
