<svg xmlns="http://www.w3.org/2000/svg" width="63" height="52" viewBox="0 0 63 52">
  <metadata><?xpacket begin="﻿" id="W5M0MpCehiHzreSzNTczkc9d"?>
<x:xmpmeta xmlns:x="adobe:ns:meta/" x:xmptk="Adobe XMP Core 5.6-c142 79.160924, 2017/07/13-01:06:39        ">
   <rdf:RDF xmlns:rdf="http://www.w3.org/1999/02/22-rdf-syntax-ns#">
      <rdf:Description rdf:about=""/>
   </rdf:RDF>
</x:xmpmeta>
                                                                                                    
                                                                                                    
                                                                                                    
                                                                                                    
                                                                                                    
                                                                                                    
                                                                                                    
                                                                                                    
                                                                                                    
                                                                                                    
                                                                                                    
                                                                                                    
                                                                                                    
                                                                                                    
                                                                                                    
                                                                                                    
                                                                                                    
                                                                                                    
                                                                                                    
                                                                                                    
                           
<?xpacket end="w"?></metadata>
<defs>
    <style>
      .cls-1 {
        fill: #204b99;
        fill-rule: evenodd;
      }
    </style>
  </defs>
  <path class="cls-1" d="M1370.34,1535.71a7.24,7.24,0,0,0-5.63-3.01,0.615,0.615,0,0,0-.14-0.01,5.543,5.543,0,0,1-5.52-4.86,10.551,10.551,0,0,0,2.25-2.23,14.116,14.116,0,0,0,2.56-6.53,1.23,1.23,0,0,0,.24-0.38,10.775,10.775,0,0,0,.87-4.28c0-5.74-4.4-10.41-9.8-10.41a9.185,9.185,0,0,0-4.03.93,7.21,7.21,0,0,0-1.4.26c-4.51,1.28-7.06,6.68-5.68,12.02a12.549,12.549,0,0,0,.52,1.57,1.476,1.476,0,0,0,.23.36,12.767,12.767,0,0,0,4.8,8.69,5.543,5.543,0,0,1-5.52,4.86h-0.13a7.185,7.185,0,0,0-6.96,7.13v7.67a1.306,1.306,0,0,0,1.31,1.3h23.19a1.3,1.3,0,1,0,0-2.59h-21.88v-6.38a4.582,4.582,0,0,1,4.6-4.54,0.57,0.57,0,0,0,.13-0.01,8.054,8.054,0,0,0,2.69-.54l6.21,8.87a1.335,1.335,0,0,0,2.16,0l6.21-8.87a8.054,8.054,0,0,0,2.69.54,0.57,0.57,0,0,0,.13.01,4.652,4.652,0,0,1,3.76,1.92,1.307,1.307,0,0,0,1.82.31A1.271,1.271,0,0,0,1370.34,1535.71Zm-19.87-28.03a4.877,4.877,0,0,1,1.08-.18,1.491,1.491,0,0,0,.56-0.14,6.521,6.521,0,0,1,3.06-.77c3.88,0,7.04,3.37,7.17,7.56a4.723,4.723,0,0,0-2.84-.94h-6.86a1.581,1.581,0,0,1-.94-0.31,1.6,1.6,0,0,1-.52-0.66,1.546,1.546,0,0,0-2.92.19,8.853,8.853,0,0,1-1.81,3.46C1345.77,1512.13,1347.49,1508.53,1350.47,1507.68Zm-3.08,10.98a11.625,11.625,0,0,0,2.73-3.69l0.01,0.01a4.19,4.19,0,0,0,2.51.82h6.86a2.093,2.093,0,0,1,1.88,1.17,11.991,11.991,0,0,1-2.19,7.09,6.163,6.163,0,0,1-4.86,2.75,6.024,6.024,0,0,1-4.58-2.41A11.256,11.256,0,0,1,1347.39,1518.66Zm6.94,21.92-5.02-7.16a8.11,8.11,0,0,0,2.74-4.37,7.594,7.594,0,0,0,2.28.35,7.968,7.968,0,0,0,2.28-.34,8.12,8.12,0,0,0,2.74,4.36Zm38.71-.68h-0.13a5.552,5.552,0,0,1-5.52-4.87,11.592,11.592,0,0,0,3.81-5,1.279,1.279,0,0,0,.86.86,1.32,1.32,0,0,0,.39.06,1.337,1.337,0,0,0,1.04-.5,13.511,13.511,0,0,0-.44-16.73,9.7,9.7,0,0,0-7.26-3.51,4.829,4.829,0,0,0-.56.01,9.894,9.894,0,0,0-4.41-.88,10.72,10.72,0,0,0-8.17,4.37,15.027,15.027,0,0,0-3,9.71c0.02,0.61.07,1.18,0.14,1.71a15.781,15.781,0,0,0,1.28,4.39,1.31,1.31,0,0,0,1.12.76,1.329,1.329,0,0,0,1.2-.62c0.1-.17.24-0.38,0.39-0.59a12.9,12.9,0,0,0,2.61,4.58,10.647,10.647,0,0,0,1.56,1.39,5.543,5.543,0,0,1-5.52,4.86h-0.13a7.185,7.185,0,0,0-6.96,7.13v7.67a1.306,1.306,0,0,0,1.31,1.3h32.04a1.306,1.306,0,0,0,1.31-1.3v-7.67A7.185,7.185,0,0,0,1393.04,1539.9Zm-20.34-13.59a14.982,14.982,0,0,1-.31-1.54c-0.06-.45-0.1-0.92-0.12-1.43a12.465,12.465,0,0,1,2.46-8.05,8.186,8.186,0,0,1,6.17-3.36,7.694,7.694,0,0,1,3.5.77,1.346,1.346,0,0,0,.63.13l0.72-.03a7.1,7.1,0,0,1,5.31,2.61,10.54,10.54,0,0,1,2.48,6.61,11.12,11.12,0,0,1-.56,3.92c-0.12-.33-0.26-0.65-0.41-0.97a11.653,11.653,0,0,0-6.01-5.81,1.316,1.316,0,0,0-1.03.01,1.291,1.291,0,0,0-.71.74,9.733,9.733,0,0,1-.63,1.35,3.937,3.937,0,0,1-3.61,1.88c-0.23-.01-0.47-0.01-0.7,0a10.5,10.5,0,0,0-3.29.64A11.6,11.6,0,0,0,1372.7,1526.31Zm3.23,0.7a7.6,7.6,0,0,1,1.58-.81,8.067,8.067,0,0,1,2.45-.47h0.53a6.521,6.521,0,0,0,5.99-3.21c0.07-.12.14-0.25,0.21-0.38a9.028,9.028,0,0,1,2.99,3c-0.01.04-.01,0.08-0.02,0.12a11.5,11.5,0,0,1-2.41,6.35,6.042,6.042,0,0,1-4.59,2.41C1379.57,1534.01,1376.83,1531.11,1375.93,1527.01Zm4.46,9.25a7.6,7.6,0,0,0,4.56,0,8.11,8.11,0,0,0,3.91,5.17,6.445,6.445,0,0,1-12.38,0A8.11,8.11,0,0,0,1380.39,1536.26Zm16.99,17.15h-29.41v-6.38a4.567,4.567,0,0,1,4.59-4.54,0.57,0.57,0,0,0,.13-0.01,8.2,8.2,0,0,0,1.32-.14,9.089,9.089,0,0,0,17.32,0,8.2,8.2,0,0,0,1.32.14,0.57,0.57,0,0,0,.13.01,4.575,4.575,0,0,1,4.6,4.54v6.38Z" transform="translate(-1337 -1504)"/>
</svg>
