<svg xmlns="http://www.w3.org/2000/svg" width="59" height="59" viewBox="0 0 59 59">
  <metadata><?xpacket begin="﻿" id="W5M0MpCehiHzreSzNTczkc9d"?>
<x:xmpmeta xmlns:x="adobe:ns:meta/" x:xmptk="Adobe XMP Core 5.6-c142 79.160924, 2017/07/13-01:06:39        ">
   <rdf:RDF xmlns:rdf="http://www.w3.org/1999/02/22-rdf-syntax-ns#">
      <rdf:Description rdf:about=""/>
   </rdf:RDF>
</x:xmpmeta>
                                                                                                    
                                                                                                    
                                                                                                    
                                                                                                    
                                                                                                    
                                                                                                    
                                                                                                    
                                                                                                    
                                                                                                    
                                                                                                    
                                                                                                    
                                                                                                    
                                                                                                    
                                                                                                    
                                                                                                    
                                                                                                    
                                                                                                    
                                                                                                    
                                                                                                    
                                                                                                    
                           
<?xpacket end="w"?></metadata>
<defs>
    <style>
      .cls-1 {
        fill: #204b99;
        fill-rule: evenodd;
      }
    </style>
  </defs>
  <path class="cls-1" d="M1022.66,1534.35h-7.01a17.9,17.9,0,0,1-.32-2.18,1.28,1.28,0,1,0-2.55.22,21.349,21.349,0,0,0,.6,3.56h0a21.8,21.8,0,0,0,15.67,15.67,1.75,1.75,0,0,0,.32.04,1.345,1.345,0,0,0,.79-0.27,1.289,1.289,0,0,0,.49-1.02v-8.03A7.994,7.994,0,0,0,1022.66,1534.35Zm5.43,14.3a19.268,19.268,0,0,1-11.74-11.74h6.31a5.441,5.441,0,0,1,5.43,5.43v6.31Zm27.27-39.01a29.5,29.5,0,1,0,8.64,20.86A29.311,29.311,0,0,0,1055.36,1509.64Zm-20.86,47.79a26.935,26.935,0,1,1,26.93-26.93A26.96,26.96,0,0,1,1034.5,1557.43Zm20.89-22.59a1.284,1.284,0,0,0-1.01-.49h-8.04a7.994,7.994,0,0,0-7.99,7.99v8.03a1.289,1.289,0,0,0,.49,1.02,1.345,1.345,0,0,0,.79.27,1.75,1.75,0,0,0,.32-0.04,21.8,21.8,0,0,0,15.67-15.67A1.306,1.306,0,0,0,1055.39,1534.84Zm-14.48,13.81v-6.31a5.441,5.441,0,0,1,5.43-5.43h6.31A19.293,19.293,0,0,1,1040.91,1548.65Zm-6.41-23.28a5.13,5.13,0,1,0,5.13,5.13A5.134,5.134,0,0,0,1034.5,1525.37Zm0,7.69a2.565,2.565,0,1,1,2.57-2.56A2.574,2.574,0,0,1,1034.5,1533.06Zm-20.2-6.4a1.286,1.286,0,0,0-1.44,1.12l-0.01.12a1.281,1.281,0,0,0,1.12,1.42,0.757,0.757,0,0,0,.15.01,1.286,1.286,0,0,0,1.28-1.13l0.01-.11A1.282,1.282,0,0,0,1014.3,1526.66Zm41.01-2.68v-0.01a21.906,21.906,0,0,0-7.78-10.95,21.811,21.811,0,0,0-26.06,0,21.975,21.975,0,0,0-7.78,10.96,1.286,1.286,0,0,0,1.41,1.65,122.622,122.622,0,0,1,37.98-.12,18.99,18.99,0,0,1,.66,4.99,1.28,1.28,0,0,0,2.56,0A21.745,21.745,0,0,0,1055.31,1523.98Zm-20.81-2.46a139.523,139.523,0,0,0-17.64,1.27,19.259,19.259,0,0,1,35.28,0A139.523,139.523,0,0,0,1034.5,1521.52Z" transform="translate(-1005 -1501)"/>
</svg>
