<svg xmlns="http://www.w3.org/2000/svg" width="53" height="65" viewBox="0 0 53 65">
  <metadata><?xpacket begin="﻿" id="W5M0MpCehiHzreSzNTczkc9d"?>
<x:xmpmeta xmlns:x="adobe:ns:meta/" x:xmptk="Adobe XMP Core 5.6-c142 79.160924, 2017/07/13-01:06:39        ">
   <rdf:RDF xmlns:rdf="http://www.w3.org/1999/02/22-rdf-syntax-ns#">
      <rdf:Description rdf:about=""/>
   </rdf:RDF>
</x:xmpmeta>
                                                                                                    
                                                                                                    
                                                                                                    
                                                                                                    
                                                                                                    
                                                                                                    
                                                                                                    
                                                                                                    
                                                                                                    
                                                                                                    
                                                                                                    
                                                                                                    
                                                                                                    
                                                                                                    
                                                                                                    
                                                                                                    
                                                                                                    
                                                                                                    
                                                                                                    
                                                                                                    
                           
<?xpacket end="w"?></metadata>
<defs>
    <style>
      .cls-1 {
        fill: #204b99;
        fill-rule: evenodd;
      }
    </style>
  </defs>
  <path class="cls-1" d="M374.5,3496a3.635,3.635,0,0,1-1.408-.28,40.124,40.124,0,0,1-18.064-14.47A39.57,39.57,0,0,1,348,3458.67v-17.52a3.723,3.723,0,0,1,2.671-3.55l21.3-6.24a9.06,9.06,0,0,1,5.057,0l21.3,6.24a3.723,3.723,0,0,1,2.671,3.55v17.52a39.57,39.57,0,0,1-7.028,22.58,40.13,40.13,0,0,1-18.064,14.47A3.635,3.635,0,0,1,374.5,3496Zm0-62.04a6.053,6.053,0,0,0-1.686.24l-21.3,6.24a0.739,0.739,0,0,0-.535.71v17.52a36.662,36.662,0,0,0,6.506,20.91,37.222,37.222,0,0,0,16.73,13.4,0.707,0.707,0,0,0,.57,0,37.222,37.222,0,0,0,16.73-13.4,36.661,36.661,0,0,0,6.5-20.91v-17.52a0.739,0.739,0,0,0-.534-0.71l-21.3-6.24A6.04,6.04,0,0,0,374.5,3433.96Zm0,53.01a2.22,2.22,0,0,1-1.035-.25,32.035,32.035,0,0,1-11.306-9.88,31.31,31.31,0,0,1-5.769-18.17v-12.4a2.245,2.245,0,0,1,1.6-2.13l15.875-4.65a2.264,2.264,0,0,1,1.264,0l15.875,4.65a2.245,2.245,0,0,1,1.6,2.13v12.4a31.31,31.31,0,0,1-5.769,18.17,32.029,32.029,0,0,1-11.307,9.88A2.219,2.219,0,0,1,374.5,3486.97Zm-15.131-40.14v11.84a28.379,28.379,0,0,0,5.228,16.47,28.954,28.954,0,0,0,9.9,8.77,28.954,28.954,0,0,0,9.9-8.77,28.378,28.378,0,0,0,5.227-16.47v-11.84l-15.13-4.44Z" transform="translate(-348 -3431)"/>
</svg>
