<svg xmlns="http://www.w3.org/2000/svg" width="27" height="27" viewBox="0 0 27 27">
  <metadata><?xpacket begin="﻿" id="W5M0MpCehiHzreSzNTczkc9d"?>
<x:xmpmeta xmlns:x="adobe:ns:meta/" x:xmptk="Adobe XMP Core 5.6-c142 79.160924, 2017/07/13-01:06:39        ">
   <rdf:RDF xmlns:rdf="http://www.w3.org/1999/02/22-rdf-syntax-ns#">
      <rdf:Description rdf:about=""/>
   </rdf:RDF>
</x:xmpmeta>
                                                                                                    
                                                                                                    
                                                                                                    
                                                                                                    
                                                                                                    
                                                                                                    
                                                                                                    
                                                                                                    
                                                                                                    
                                                                                                    
                                                                                                    
                                                                                                    
                                                                                                    
                                                                                                    
                                                                                                    
                                                                                                    
                                                                                                    
                                                                                                    
                                                                                                    
                                                                                                    
                           
<?xpacket end="w"?></metadata>
<defs>
    <style>
      .cls-1 {
        fill: #90a3d2;
        fill-rule: evenodd;
      }
    </style>
  </defs>
  <path id="Forma_1" data-name="Forma 1" class="cls-1" d="M1551,25.5a13.5,13.5,0,1,0-22.62,9.945l-0.01.011,0.44,0.369a0.6,0.6,0,0,1,.08.068c0.24,0.193.48,0.376,0.72,0.553l0.24,0.171q0.4,0.271.81,0.514l0.18,0.1c0.3,0.172.61,0.333,0.92,0.481a0.466,0.466,0,0,1,.07.031,13.406,13.406,0,0,0,3.27,1.033l0.09,0.016c0.35,0.062.71,0.11,1.08,0.143l0.13,0.01c0.36,0.03.73,0.049,1.1,0.049s0.73-.019,1.09-0.048l0.14-.01c0.36-.033.71-0.081,1.07-0.141l0.09-.017a13.31,13.31,0,0,0,3.22-1.009c0.03-.017.07-0.033,0.11-0.051,0.3-.142.6-0.3,0.89-0.46l0.21-.123c0.27-.156.53-0.319,0.78-0.491,0.09-.062.18-0.127,0.27-0.192,0.22-.155.43-0.315,0.63-0.483a1.559,1.559,0,0,0,.14-0.106l0.45-.375-0.01-.011A13.481,13.481,0,0,0,1551,25.5Zm-26.02,0a12.52,12.52,0,1,1,20.82,9.358,3.285,3.285,0,0,0-.44-0.264l-4.15-2.078a1.081,1.081,0,0,1-.61-0.978V30.086a4.852,4.852,0,0,0,.3-0.4,10.128,10.128,0,0,0,1.29-2.515,1.782,1.782,0,0,0,1.02-1.615v-1.74a1.778,1.778,0,0,0-.43-1.163V20.361a4,4,0,0,0-.93-2.879,6.861,6.861,0,0,0-8.7,0,4,4,0,0,0-.93,2.878v2.291a1.776,1.776,0,0,0-.43,1.163v1.74a1.773,1.773,0,0,0,.66,1.385,9.156,9.156,0,0,0,1.51,3.136V31.5a1.1,1.1,0,0,1-.57.961l-3.88,2.117a3.646,3.646,0,0,0-.37.233A12.5,12.5,0,0,1,1524.98,25.5Z" transform="translate(-1524 -12)"/>
</svg>
