<svg xmlns="http://www.w3.org/2000/svg" width="66" height="65" viewBox="0 0 66 65">
  <metadata><?xpacket begin="﻿" id="W5M0MpCehiHzreSzNTczkc9d"?>
<x:xmpmeta xmlns:x="adobe:ns:meta/" x:xmptk="Adobe XMP Core 5.6-c142 79.160924, 2017/07/13-01:06:39        ">
   <rdf:RDF xmlns:rdf="http://www.w3.org/1999/02/22-rdf-syntax-ns#">
      <rdf:Description rdf:about=""/>
   </rdf:RDF>
</x:xmpmeta>
                                                                                                    
                                                                                                    
                                                                                                    
                                                                                                    
                                                                                                    
                                                                                                    
                                                                                                    
                                                                                                    
                                                                                                    
                                                                                                    
                                                                                                    
                                                                                                    
                                                                                                    
                                                                                                    
                                                                                                    
                                                                                                    
                                                                                                    
                                                                                                    
                                                                                                    
                                                                                                    
                           
<?xpacket end="w"?></metadata>
<defs>
    <style>
      .cls-1 {
        fill: #204b99;
        fill-rule: evenodd;
      }
    </style>
  </defs>
  <path class="cls-1" d="M383.354,3776.93a4.337,4.337,0,0,1-2.03-.51l-12.917-6.79a0.89,0.89,0,0,0-.81,0l-12.917,6.79a4.351,4.351,0,0,1-6.315-4.58l2.467-14.38a0.864,0.864,0,0,0-.25-0.77l-10.45-10.19a4.349,4.349,0,0,1,2.412-7.42l14.441-2.1a0.877,0.877,0,0,0,.656-0.47l6.458-13.09a4.357,4.357,0,0,1,7.806,0l6.459,13.09a0.874,0.874,0,0,0,.655.47l14.441,2.1a4.35,4.35,0,0,1,2.413,7.42l-10.45,10.19a0.865,0.865,0,0,0-.251.77l2.467,14.38A4.366,4.366,0,0,1,383.354,3776.93ZM368,3766.05a4.393,4.393,0,0,1,2.026.5l12.916,6.79a0.867,0.867,0,0,0,1.263-.92l-2.466-14.37a4.356,4.356,0,0,1,1.251-3.86l10.45-10.18a0.867,0.867,0,0,0-.482-1.48l-14.442-2.1a4.371,4.371,0,0,1-3.277-2.38l-6.458-13.08v-0.01a0.875,0.875,0,0,0-1.561,0l-6.459,13.09a4.371,4.371,0,0,1-3.277,2.38l-14.441,2.1a0.867,0.867,0,0,0-.483,1.48l10.45,10.18a4.36,4.36,0,0,1,1.252,3.86l-2.467,14.37a0.874,0.874,0,0,0,1.263.92l12.917-6.79A4.392,4.392,0,0,1,368,3766.05Zm17.466-36.93a1.706,1.706,0,0,1-1.022-.34,1.738,1.738,0,0,1-.385-2.43l1.848-2.54a1.739,1.739,0,1,1,2.817,2.04l-1.848,2.55A1.736,1.736,0,0,1,385.468,3729.12Zm-34.94-.01a1.739,1.739,0,0,1-1.41-.72l-1.848-2.55a1.739,1.739,0,1,1,2.817-2.04l1.848,2.54a1.738,1.738,0,0,1-.385,2.43A1.7,1.7,0,0,1,350.528,3729.11Zm-13.785,34.19a1.743,1.743,0,0,1-.538-3.4l2.99-.97a1.74,1.74,0,1,1,1.076,3.31l-2.99.97A1.691,1.691,0,0,1,336.743,3763.3ZM368,3786a1.742,1.742,0,0,1-1.742-1.74v-3.14a1.741,1.741,0,1,1,3.482,0v3.14A1.741,1.741,0,0,1,368,3786Zm31.258-22.7a1.679,1.679,0,0,1-.539-0.08l-2.99-.97a1.745,1.745,0,0,1,1.076-3.32l2.991,0.98A1.737,1.737,0,0,1,399.261,3763.3Z" transform="translate(-335 -3721)"/>
</svg>
